<svg height="476pt" viewBox="0 -1 476.42808 476" width="476pt" xmlns="http://www.w3.org/2000/svg"><path d="m421.714844 202.421875-1.640625-67.179687c-.757813-14.988282 10.394531-27.921876 25.332031-29.378907l23.019531 145.269531c.277344 18.234376-5.320312 36.074219-15.972656 50.878907l-56.347656 68.191406c-5.1875 6.273437-7.746094 14.3125-7.140625 22.429687l3.71875 21.199219-80.667969-38.429687.300781-.640625c-6.222656-30.59375 5.179688-62.101563 29.539063-81.628907l4.46875-3.589843c7.003906-5.617188 12.648437-12.746094 16.511719-20.851563l21.539062-45.21875c6.757812-14.195312 21.699219-22.617187 37.339844-21.050781zm0 0" fill="#f7caa5"/><path d="m392.683594 413.832031 6.621094 3.148438-23.609376 49.589843-108.820312-51.828124 23.621094-49.589844 21.519531 10.25zm0 0" fill="#00acea"/><path d="m343.125 59.742188v98.148437c0 23.410156-15.660156 52.972656-34.96875 66.132813l-69.941406 47.699218-69.941406-47.699218c-19.308594-13.160157-34.96875-42.871094-34.96875-66.132813v-98.296875l104.910156-51.382812zm-54.910156 95.648437v-29h-36v-36h-28v36h-37v29h37v36h28v-36zm0 0" fill="#00efd1"/><path d="m288.214844 126.390625v29h-36v36h-28v-36h-37v-29h37v-36h28v36zm0 0" fill="#00acea"/><path d="m83.746094 413.832031 80.667968-38.429687 21.519532-10.25 23.621094 49.589844-108.820313 51.828124-23.609375-49.589843zm0 0" fill="#00acea"/><path d="m54.714844 202.421875c15.640625-1.566406 30.582031 6.855469 37.339844 21.050781l21.539062 45.21875c3.863281 8.105469 9.507812 15.234375 16.511719 20.851563l4.46875 3.589843c24.359375 19.527344 35.761719 51.035157 29.539062 81.628907l.300781.640625-80.667968 38.429687 3.71875-21.199219c.605468-8.117187-1.953125-16.15625-7.140625-22.429687l-56.347657-68.191406c-10.648437-14.804688-16.25-32.644531-15.972656-50.878907l23.019532-145.269531c14.382812 1.402344 25.359374 13.488281 25.371093 27.9375 0 .480469-.019531.960938-.039062 1.441407zm0 0" fill="#f7caa5"/><g fill="#083863"><path d="m163.722656 230.632812 69.960938 47.699219c2.726562 1.855469 6.308594 1.855469 9.035156 0l69.984375-47.699219c21.566406-14.699218 38.511719-46.652343 38.511719-72.742187v-98.148437c-.019532-3.058594-1.769532-5.839844-4.519532-7.179688l-104.929687-51.53125c-2.226563-1.0898438-4.832031-1.0898438-7.058594 0l-104.960937 51.375c-2.753906 1.339844-4.511719 4.125-4.53125 7.1875v98.296875c0 26.089844 16.941406 58.042969 38.507812 72.742187zm-22.507812-166.050781 97-47.460937 97 47.605468v93.164063c0 20.636719-14.457032 47.894531-31.523438 59.523437l-65.453125 44.625-65.492187-44.628906c-17.0625-11.625-31.53125-38.882812-31.53125-59.519531zm0 0"/><path d="m187.214844 163.390625h29v28c0 4.417969 3.582031 8 8 8h28c4.417968 0 8-3.582031 8-8v-28h28c4.417968 0 8-3.582031 8-8v-29c0-4.417969-3.582032-8-8-8h-28v-28c0-4.417969-3.582032-8-8-8h-28c-4.417969 0-8 3.582031-8 8v28h-29c-4.417969 0-8 3.582031-8 8v29c0 4.417969 3.582031 8 8 8zm8-29h29c4.417968 0 8-3.582031 8-8v-28h12v28c0 4.417969 3.582031 8 8 8h28v13h-28c-4.417969 0-8 3.582031-8 8v28h-12v-28c0-4.417969-3.582032-8-8-8h-29zm0 0"/><path d="m341.316406 283.304688-4.464844 3.585937c-22.765624 18.164063-35.453124 46.132813-34.125 75.226563l-8.792968-4.1875c-3.988282-1.902344-8.761719-.207032-10.660156 3.78125l-23.621094 49.589843c-1.898438 3.988281-.207032 8.765625 3.78125 10.664063l108.820312 51.828125c3.992188 1.898437 8.765625.203125 10.664063-3.785157l23.609375-49.589843c1.898437-3.988281.207031-8.765625-3.785156-10.664063l-2.890626-1.375-2.9375-16.707031c-.359374-5.941406 1.554688-11.792969 5.355469-16.375l56.347657-68.1875c.113281-.140625.226562-.28125.328124-.425781 11.613282-16.21875 17.734376-35.726563 17.476563-55.675782-.007813-.375-.042969-.753906-.101563-1.128906l-23.019531-145.269531c-.660156-4.183594-4.464843-7.125-8.679687-6.710937-19.15625 1.84375-33.488282 18.414062-32.546875 37.640624l1.4375 58.925782c-15.753907 1.589844-29.535157 11.28125-36.363281 25.566406l-21.535157 45.21875c-3.351562 7.015625-8.238281 13.183594-14.296875 18.054688zm30.597656 172.601562-94.371093-44.949219 16.738281-35.148437 94.363281 44.953125zm-20.585937-160.121094c7.9375-6.382812 14.335937-14.464844 18.730469-23.652344l21.539062-45.222656c5.316406-11.140625 17.046875-17.75 29.332032-16.527344.648437.066407 1.292968.152344 1.9375.257813l-31.484376 66.113281c-1.902343 3.988282-.207031 8.761719 3.78125 10.660156 3.988282 1.902344 8.765626.207032 10.664063-3.78125l35.398437-74.332031c1.902344-3.988281.207032-8.761719-3.78125-10.660156-2.535156-1.207031-5.175781-2.175781-7.890624-2.894531l-1.484376-60.699219c0-.070313 0-.140625-.003906-.210937-.410156-7.875 3.832032-15.261719 10.839844-18.875l21.527344 135.847656c.09375 16.234375-4.914063 32.085937-14.320313 45.320312l-56.171875 67.972656c-6.519531 7.855469-9.730468 17.9375-8.953125 28.121094.019531.265625.050781.527344.097657.792969l1.039062 5.921875-62.511719-29.777344c-4.390625-26.789062 6.035157-53.863281 27.253907-70.792968zm0 0"/><path d="m17.808594 307.109375 56.351562 68.195313c3.800782 4.578124 5.714844 10.429687 5.355469 16.367187l-2.933594 16.710937-2.890625 1.375c-3.988281 1.898438-5.683594 6.671876-3.785156 10.664063l23.609375 49.589844c1.902344 3.984375 6.671875 5.679687 10.660156 3.78125l108.820313-51.832031c3.988281-1.898438 5.679687-6.671876 3.78125-10.660157l-23.621094-49.589843c-1.898438-3.992188-6.671875-5.683594-10.660156-3.785157l-8.792969 4.1875c1.328125-29.089843-11.355469-57.058593-34.117187-75.222656l-4.476563-3.59375c-6.058594-4.867187-10.941406-11.035156-14.292969-18.046875l-21.542968-45.214844c-6.824219-14.285156-20.605469-23.976562-36.359376-25.570312l1.441407-58.957032c.023437-.570312.042969-1.136718.042969-1.707031.054687-18.59375-14.078126-34.160156-32.59375-35.898437-4.210938-.410156-8.015626 2.53125-8.675782 6.710937l-23.019531 145.269531c-.0625.371094-.09375.75-.1015625 1.128907-.2617185 19.945312 5.8632815 39.453125 17.4726565 55.671875.105469.144531.214843.285156.328125.425781zm164.34375 68.703125 16.738281 35.148438-94.375 44.949218-16.730469-35.144531 80.066406-38.140625zm-144.625-259.863281c6.691406 3.433593 10.890625 10.332031 10.867187 17.851562 0 .371094-.015625.738281-.03125 1.109375v.136719l-1.484375 60.699219c-2.714844.71875-5.355468 1.6875-7.890625 2.894531-3.988281 1.898437-5.679687 6.671875-3.78125 10.664063l35.398438 74.328124c1.902343 3.988282 6.675781 5.683594 10.664062 3.785157 3.988281-1.902344 5.683594-6.675781 3.78125-10.664063l-31.488281-66.113281c.648438-.105469 1.300781-.199219 1.953125-.257813 12.277344-1.210937 24 5.398438 29.316406 16.53125l21.539063 45.21875c4.394531 9.183594 10.792968 17.265626 18.722656 23.644532l4.476562 3.601562c21.214844 16.929688 31.636719 43.996094 27.246094 70.78125l-62.511718 29.777344 1.039062-5.921875c.046875-.261719.082031-.527344.101562-.792969.777344-10.179687-2.433593-20.261718-8.953124-28.117187l-56.175782-67.976563c-9.40625-13.230468-14.417968-29.085937-14.320312-45.320312zm0 0"/></g></svg>